<svg width="290" height="52" viewBox="0 0 290 52" fill="none" xmlns="http://www.w3.org/2000/svg">
    <g clip-path="url(#clip0_1333_256)">
        <path d="M2.96094 48.6366L12.4555 3.02905H285.356L276.882 48.6366H2.96094Z" fill="#FFF2EC"/>
        <path d="M288.538 -9.37909e-05H10.9496C10.4519 -9.37909e-05 10.0238 0.351187 9.92885 0.837089L0.0209271 50.7589C-0.105611 51.4004 0.385778 51.9978 1.04167 51.9978H278.628C279.126 51.9978 279.552 51.6465 279.649 51.1606L289.559 1.23675C289.685 0.59519 289.194 -0.00219727 288.538 -0.00219727M40.1208 38.9899H32.3872C32.1173 38.9899 31.9401 38.7754 31.995 38.5103L33.5282 30.9021C33.5809 30.637 33.4059 30.4225 33.1338 30.4225H28.4582C28.1883 30.4225 27.9247 30.637 27.8719 30.9021L26.3387 38.5103C26.286 38.7754 26.0224 38.9899 25.7524 38.9899H18.0188C17.7489 38.9899 17.5717 38.7754 17.6245 38.5103L19.1577 30.9021C19.2104 30.637 19.0354 30.4225 18.7633 30.4225H13.0986C12.8287 30.4225 12.6515 30.2079 12.7043 29.9429L13.5963 25.513C13.6491 25.2479 13.9127 25.0334 14.1826 25.0334H19.8473C20.1173 25.0334 20.3809 24.8188 20.4336 24.5538L22.5109 14.2404C22.5637 13.9754 22.8273 13.7608 23.0972 13.7608H30.8308C31.1008 13.7608 31.2779 13.9754 31.2252 14.2404L29.1479 24.5538C29.0951 24.8188 29.2702 25.0334 29.5422 25.0334H34.2178C34.4878 25.0334 34.7514 24.8188 34.8041 24.5538L36.8814 14.2404C36.9342 13.9754 37.1978 13.7608 37.4677 13.7608H45.2013C45.4713 13.7608 45.6484 13.9754 45.5957 14.2404L40.7071 38.5082C40.6544 38.7733 40.3908 38.9878 40.1208 38.9878M56.3303 25.0334H61.7841C62.0541 25.0334 62.2312 25.2479 62.1764 25.513L61.2843 29.9429C61.2316 30.2079 60.968 30.4225 60.698 30.4225H55.2442C54.9743 30.4225 54.7107 30.637 54.6579 30.9021L54.2108 33.1233C54.1581 33.3884 54.3331 33.6029 54.6052 33.6029H63.6506C63.9205 33.6029 64.0977 33.8175 64.0449 34.0825L63.1528 38.5124C63.1001 38.7775 62.8365 38.992 62.5666 38.992H44.8069C44.537 38.992 44.3598 38.7775 44.4126 38.5124L49.3012 14.2446C49.3539 13.9796 49.6175 13.765 49.8874 13.765H66.9806C67.2506 13.765 67.4277 13.9796 67.3729 14.2446L66.4808 18.6746C66.4281 18.9396 66.1645 19.1541 65.8945 19.1541H57.5135C57.2435 19.1541 56.9799 19.3687 56.9272 19.6337L55.9338 24.5601C55.8811 24.8251 56.0562 25.0397 56.3282 25.0397M94.1821 38.9941H86.4485C86.1785 38.9941 86.0014 38.7796 86.0541 38.5145L87.2984 32.3324C87.3511 32.0674 87.2921 32.0463 87.1655 32.284L83.8165 38.5608C83.69 38.7985 83.3673 38.992 83.0973 38.992H78.0211C77.7511 38.992 77.4917 38.7775 77.4453 38.5103L76.3318 32.324C76.2833 32.059 76.201 32.0569 76.1483 32.324L74.9019 38.5145C74.8492 38.7796 74.5855 38.9941 74.3156 38.9941H66.582C66.3121 38.9941 66.1349 38.7796 66.1898 38.5145L71.0783 14.2467C71.1311 13.9817 71.3947 13.7671 71.6646 13.7671H79.7462C80.0161 13.7671 80.2692 13.9838 80.3093 14.2509L82.2938 27.3261C82.3339 27.5933 82.4689 27.6164 82.5954 27.3766L89.5782 14.1984C89.7047 13.9607 90.0274 13.7671 90.2973 13.7671H99.2647C99.5346 13.7671 99.7118 13.9817 99.659 14.2467L94.7705 38.5145C94.7177 38.7796 94.4541 38.9941 94.1842 38.9941M126.468 38.9941H118.735C118.465 38.9941 118.288 38.7796 118.34 38.5145L119.585 32.3324C119.637 32.0674 119.578 32.0463 119.452 32.284L116.103 38.5608C115.976 38.7985 115.653 38.992 115.384 38.992H110.307C110.037 38.992 109.778 38.7775 109.731 38.5103L108.618 32.324C108.569 32.059 108.489 32.0569 108.434 32.324L107.188 38.5145C107.135 38.7796 106.872 38.9941 106.602 38.9941H98.8682C98.5982 38.9941 98.4211 38.7796 98.4738 38.5145L103.362 14.2467C103.415 13.9817 103.679 13.7671 103.949 13.7671H112.03C112.3 13.7671 112.553 13.9838 112.593 14.2509L114.578 27.3261C114.618 27.5933 114.753 27.6164 114.879 27.3766L121.862 14.1984C121.989 13.9607 122.311 13.7671 122.581 13.7671H131.549C131.819 13.7671 131.996 13.9817 131.941 14.2467L127.052 38.5145C127 38.7796 126.736 38.9941 126.466 38.9941M138.884 38.9941H131.15C130.88 38.9941 130.703 38.7796 130.756 38.5145L135.644 14.2467C135.697 13.9817 135.961 13.7671 136.231 13.7671H143.964C144.234 13.7671 144.411 13.9817 144.356 14.2467L139.468 38.5145C139.415 38.7796 139.152 38.9941 138.882 38.9941M167.321 38.9941H157.9C157.63 38.9941 157.333 38.7901 157.236 38.5377L153.725 29.3497C153.628 29.0973 153.509 29.1078 153.461 29.3749L151.778 38.5145C151.729 38.7796 151.47 38.9941 151.2 38.9941H143.574C143.304 38.9941 143.125 38.7796 143.173 38.5145L147.642 14.2488C147.691 13.9838 147.95 13.7671 148.22 13.7671H155.884C156.154 13.7671 156.451 13.9712 156.548 14.2236L161.245 26.5142C161.342 26.7666 161.458 26.7561 161.509 26.4911L163.763 14.2488C163.812 13.9838 164.071 13.7671 164.341 13.7671H171.967C172.237 13.7671 172.418 13.9817 172.368 14.2488L167.899 38.5145C167.85 38.7796 167.591 38.9941 167.321 38.9941ZM196.72 28.6745C196.45 28.6745 196.189 28.8911 196.136 29.1541L194.293 38.5145C194.24 38.7775 193.978 38.9941 193.708 38.9941H171.577C171.307 38.9941 171.13 38.7796 171.183 38.5145L175.708 16.0473C175.961 14.7936 177.216 13.7671 178.501 13.7671H198.696C198.966 13.7671 199.143 13.9838 199.088 14.2467L198.196 18.6767C198.144 18.9396 197.88 19.1563 197.61 19.1563H184.286C184.016 19.1563 183.752 19.3708 183.699 19.6358L180.981 33.1296C180.928 33.3926 181.105 33.6092 181.375 33.6092H186.057C186.327 33.6092 186.589 33.3947 186.641 33.1296L187.424 29.1583C187.476 28.8953 187.297 28.6787 187.027 28.6787H184.709C184.44 28.6787 184.262 28.4641 184.315 28.1991L185.207 23.7692C185.26 23.5062 185.524 23.2896 185.793 23.2896H198.694C198.964 23.2896 199.141 23.5041 199.086 23.7692L198.194 28.1991C198.141 28.462 197.878 28.6787 197.608 28.6787H196.718L196.72 28.6745ZM219.275 18.6767C219.223 18.9396 218.959 19.1563 218.689 19.1563H210.049C209.779 19.1563 209.519 19.3729 209.471 19.6379L208.891 22.8079C208.842 23.0729 209.024 23.2896 209.294 23.2896H216.251C217.696 23.2896 218.666 24.4486 218.407 25.8663L216.418 36.7371C216.19 37.9802 214.969 38.9962 213.701 38.9962H198.3C198.03 38.9962 197.853 38.7817 197.905 38.5166L198.797 34.0867C198.85 33.8238 199.114 33.6071 199.384 33.6071H208.146C208.416 33.6071 208.676 33.3905 208.724 33.1275L209.45 29.1583C209.498 28.8932 209.317 28.6766 209.047 28.6766H202.089C200.645 28.6766 199.675 27.5176 199.934 26.0998L201.788 15.9611C202.007 14.7558 203.195 13.7693 204.422 13.7693H219.771C220.041 13.7693 220.218 13.9859 220.165 14.2488L219.273 18.6788L219.275 18.6767Z"
              fill="#28584F"/>
        <path d="M272.727 38.9712H268.13C267.97 38.9712 267.864 38.8429 267.896 38.6872L268.636 35.0124C268.668 34.8547 268.632 34.842 268.556 34.983L266.565 38.7145C266.489 38.8555 266.297 38.9712 266.137 38.9712H263.119C262.959 38.9712 262.805 38.8429 262.775 38.6851L262.113 35.0061C262.083 34.8484 262.035 34.8484 262.003 35.0061L261.261 38.6872C261.229 38.845 261.073 38.9712 260.913 38.9712H256.315C256.155 38.9712 256.05 38.8429 256.081 38.6872L258.987 24.2574C259.019 24.0996 259.175 23.9734 259.335 23.9734H264.14C264.3 23.9734 264.45 24.1017 264.475 24.2616L265.654 32.036C265.677 32.1938 265.759 32.2085 265.833 32.0676L269.986 24.2321C270.062 24.0912 270.251 23.9755 270.414 23.9755H275.745C275.906 23.9755 276.011 24.1038 275.979 24.2595L273.073 38.6893C273.042 38.8471 272.886 38.9733 272.725 38.9733"
              fill="#FFF2EC"/>
        <path d="M256.769 25.4247C256.916 24.6043 256.277 23.9712 255.425 23.9712H244.771C244.007 23.9712 243.261 24.5812 243.111 25.3279L240.665 37.5176C240.466 38.359 241.156 38.9711 242.008 38.9711H252.663C253.426 38.9711 254.173 38.3611 254.322 37.6143L256.769 25.4247ZM249.221 35.7654H246.576C246.401 35.7654 246.268 35.6055 246.302 35.433L247.86 27.4566C247.892 27.301 248.048 27.1727 248.208 27.1727H250.891C251.066 27.1727 251.199 27.3325 251.165 27.505L249.569 35.4793C249.537 35.635 249.381 35.7633 249.221 35.7633"
              fill="#FFF2EC"/>
        <path d="M240.158 23.8303H229.831C229.067 23.8303 228.321 24.4403 228.171 25.1871L225.725 37.3767C225.526 38.2181 226.216 38.8302 227.068 38.8302H237.396C238.159 38.8302 238.906 38.2202 239.055 37.4735L239.513 35.1912C239.551 34.9998 239.406 34.821 239.207 34.821H234.662C234.515 34.821 234.386 34.9262 234.357 35.0713L234.302 35.3426C234.27 35.5004 234.114 35.6287 233.954 35.6287H231.638C231.463 35.6287 231.33 35.4688 231.364 35.2964L232.923 27.32C232.954 27.1643 233.11 27.036 233.271 27.036H235.624C235.799 27.036 235.932 27.1959 235.898 27.3684L235.791 27.9048C235.753 28.0962 235.9 28.275 236.097 28.275H240.646C240.793 28.275 240.922 28.1698 240.951 28.0246L241.502 25.2859C241.649 24.4656 241.01 23.8324 240.158 23.8324"
              fill="#FFF2EC"/>
        <path d="M222.669 38.3632H219.286C218.997 38.3632 218.78 38.1003 218.839 37.8163L219.526 34.4234C219.571 34.2109 219.756 34.0574 219.973 34.0574H223.356C223.645 34.0574 223.862 34.3224 223.803 34.6043L223.116 37.9972C223.072 38.2096 222.886 38.3632 222.669 38.3632Z"
              fill="#FFF2EC"/>
    </g>
    <defs>
        <clipPath id="clip0_1333_256">
            <rect width="289.578" height="52" fill="white"/>
        </clipPath>
    </defs>
</svg>
