<svg width="532" height="300" viewBox="0 0 532 300" fill="none" xmlns="http://www.w3.org/2000/svg">
<path d="M103.205 61.0009C109.756 61.2082 116.934 61.0682 123.498 61.029L200.977 61.0933L224.135 61.0426C232.98 61.0079 241.08 60.7551 249.955 62.4573C263.963 65.143 283.178 75.5826 282.777 92.1092C282.599 99.5547 280.539 108.894 279.217 116.413L271.416 160.237L261.964 213.929C260.481 222.293 259.017 232.917 256.835 241.018C252.181 258.305 229.222 269.291 213.235 272.41C202.806 274.445 191.672 274.055 181.208 274.055L146.974 274.049L25.9264 274.091L0 274.13C0.222378 270.098 5.02702 241.308 6.46733 238.9C8.70809 237.997 29.7491 238.364 33.6127 238.365L111.764 238.375L136.122 238.378C140.127 238.378 146.124 238.551 149.891 238.207C151.09 227.454 153.753 213.977 155.519 203.094L108.283 203.117C93.7733 203.115 79.4877 203.266 64.8392 202.688C46.0225 201.945 22.395 203.025 7.23883 189.886C-3.47669 180.597 0.785699 165.201 3.01811 153.025L7.05653 130.632L11.1047 107.745C11.8183 103.74 12.5083 99.7948 13.4034 95.8202C16.4727 82.1934 27.3553 74.5167 39.1942 68.6417C59.5316 58.5492 81.2868 61.4086 103.205 61.0009ZM108.065 167.7C114.798 167.392 122.446 167.55 129.251 167.552L162.096 167.565C163.617 155.478 166.882 140.362 169.013 127.989C170.251 120.837 171.531 113.692 172.853 106.554C173.225 104.521 174.255 98.1806 174.817 96.5143L139.587 96.5196C133.769 96.5091 126.705 96.2906 121.018 96.5141C119.954 102.091 119.108 107.973 118.122 113.599L112.607 144.168C111.471 150.557 109.739 161.684 108.065 167.7Z" fill="#FEFEFE"/>
<path d="M306.12 60.9865C314.386 60.8042 324.981 60.9423 333.367 61.0653C349.309 61.299 368.391 59.3887 383.209 65.1287C392.045 68.6279 401.044 74.5207 405.057 83.4529C408.58 91.2949 405.833 101.377 404.392 109.576L399.972 134.219L386.042 212.924L378.608 255.016C377.96 258.672 376.12 270.852 375.004 273.666C373.829 274.565 369.599 274.206 367.909 274.161L293.668 274.078C290.456 274.078 269.551 274.353 267.706 273.841C267.071 272.614 292.947 128.995 295.499 114.514L301.461 81.1818C302.54 75.0322 303.601 68.7259 304.773 62.5826C304.92 61.8036 305.471 61.3739 306.12 60.9865Z" fill="#FEFEFE"/>
<path d="M431.639 60.9863C442.483 61.074 453.329 61.1035 464.172 61.0746C486.571 60.9819 514.98 58.9132 528.985 81.4405C533.83 89.2388 531.164 99.0082 529.655 107.561L526.099 127.793L514.871 190.909L505.291 245.024C504.22 251.373 503.106 257.713 501.951 264.047C501.45 266.764 500.777 270.996 500.045 273.546C498.74 274.478 494.417 274.122 492.6 274.08L419.719 274.083C416.104 274.083 394.498 274.545 392.585 273.847C392.201 272.722 393.835 264.628 394.122 262.964L400.971 224.285L423.198 99.4079C425.129 88.5536 427.092 77.6754 428.934 66.8025C429.343 64.387 429.137 61.8338 431.639 60.9863Z" fill="#FEFEFE"/>
<path d="M178.632 13.3858C188.907 13.0627 199.997 13.4387 210.355 13.2996C214.151 13.2486 228.621 13.0648 231.431 13.7498C231.383 14.5805 231.289 15.2759 231.147 16.0914C228.807 29.5962 226.066 43.1212 224 56.6648C220.533 56.5368 216.861 56.4697 213.412 56.7249C204.515 56.3097 195.443 56.5232 186.529 56.6456C181.064 56.7208 175.083 57.0531 169.666 56.3378C167.435 56.0433 164.757 55.4661 162.949 54.0882C161.803 53.2143 160.137 51.5324 159.959 50.0301C159.537 46.4496 164.038 21.1602 166.077 18.6344C168.994 15.0204 174.231 13.8362 178.632 13.3858ZM186.121 47.8946C189.984 47.8715 195.327 47.9733 199.113 47.611C200.236 42.3238 200.989 36.779 201.923 31.4465C202.378 28.8515 202.943 24.5743 203.768 22.1586C199.904 22.2076 194.639 22.3784 190.87 22.1795C189.913 28.1432 187.587 42.2751 186.121 47.8946Z" fill="#FEFEFE"/>
<path d="M115.861 49.5C110.516 58.7723 94.4587 56.5169 85.3844 56.5875L69.7812 56.6271C64.4252 56.5959 52.0405 57.3173 51.1226 49.527C50.9676 48.2114 51.6057 44.6145 51.8768 43.1394C53.2047 35.9205 54.0383 28.5176 55.8638 21.4101C57.2698 15.9657 65.0436 13.394 70.1307 13.3154C81.0403 13.1469 92.0493 13.4627 102.968 13.2933C109.328 13.2141 114.831 12.828 119.901 17.3982C120.414 18.2125 121.224 19.5682 121.107 20.5419C120.814 22.9847 120.521 26.7734 119.836 29.0982C118.304 34.294 117.982 45.1619 115.861 49.5ZM77.1311 47.8694L90.2118 47.7288C90.8993 43.0292 91.845 38.1328 92.656 33.4265C93.2514 29.9726 93.901 25.3749 94.8183 22.1359C90.6663 22.1818 86.0537 22.3098 81.917 22.1949C81.5438 23.6101 81.5268 25.1581 81.1578 26.5393C79.4595 32.8946 79.2482 41.8263 77.1311 47.8694Z" fill="#FEFEFE"/>
<path d="M16.672 0.153882C21.3867 -0.193677 30.2573 0.156805 35.4185 0.152268C47.0876 0.0759543 58.7573 0.0840811 70.4262 0.176676C70.1036 2.40002 69.9458 7.86845 68.1824 9.40163C66.7944 10.6083 57.3153 9.7638 55.1141 9.70983C54.6997 14.6664 53.5622 20.2945 52.7016 25.2523L49.5374 43.9439C49.135 46.4139 48.0604 54.5849 46.9643 56.1749C44.4923 57.768 30.4961 56.8042 27.3764 55.4001C20.4332 52.2752 21.5067 48.5628 22.5261 42.1802C22.9676 39.4168 23.4388 36.6634 23.8946 33.9627L27.9776 9.60613C24.3377 9.98993 18.4785 9.7309 14.5898 9.77763C14.8888 6.92485 15.2013 2.52314 16.672 0.153882Z" fill="#FEFEFE"/>
<path d="M126.479 4.85932C133.574 4.50388 144.822 4.75462 152.33 4.74385C152.01 7.63369 151.533 10.4016 151.055 13.2645C155.107 13.2945 160.005 13.4365 164.007 13.1687C163.583 15.8603 163.101 19.467 162.564 22.1205C158.404 22.2198 153.588 22.4029 149.481 22.1319C147.593 29.3149 146.909 40.1313 144.893 47.7293C148.645 47.8317 154.419 47.6188 157.862 48.0095C157.096 50.8937 157.166 53.413 156.345 56.5037C148.378 56.7984 140.406 56.5883 132.436 56.6473C127.646 56.6829 120.196 55.5585 118.507 50.263C118.422 44.6288 121.237 34.0696 122.095 28.1354C122.36 26.3032 123.25 23.1744 123.192 21.4244C124.041 17.4115 125.246 8.06007 126.479 4.85932Z" fill="#FEFEFE"/>
<path d="M237.174 4.77303C245.226 5.03128 253.459 4.55257 261.271 4.80002C260.854 12.1343 257.759 24.2433 256.701 31.8402C256.356 34.3047 254.394 45.8211 253.81 47.6974C256.596 47.9802 264.082 47.9134 266.891 47.5627C266.679 49.6601 266.053 55.2932 264.517 56.5487C257.035 56.463 237.397 57.7897 231.558 54.7132C230.034 53.9097 228.269 52.5844 227.777 50.8502C227.442 49.6668 227.536 48.411 227.679 47.2065C228.166 43.1178 234.493 6.64077 235.169 5.38048C236.066 4.72471 235.943 4.91516 237.174 4.77303Z" fill="#FEFEFE"/>
<path d="M119.508 281.127C122.915 281.049 126.717 280.974 129.906 281.03C137.559 281.28 140.282 281.943 139.9 290.081C139.581 296.861 140.06 298.252 132.627 299.468C127.295 299.321 119.419 300.459 114.699 298.352C110.3 296.387 111.437 286.134 113.553 282.703C116.061 281.528 116.849 281.356 119.508 281.127ZM118.824 294.158C122.694 295.338 126.503 295.043 130.515 294.89C131.398 294.615 132.09 294.514 132.6 293.729C133.724 291.996 133.203 288.344 132.829 286.312C129.667 285.703 124.982 285.408 121.845 285.845C118.028 286.09 118.403 288.133 118.619 291.369C118.68 292.299 118.748 293.229 118.824 294.158Z" fill="#FEFEFE"/>
<path d="M144.917 281.428L145.163 281.389C149.997 280.665 159.409 281.244 164.461 281.547C170.697 281.92 171.2 287.876 167.678 292.254C168.385 292.961 168.987 293.766 169.608 294.55C170.004 299.031 169.962 299.485 165.298 299.476C164.448 299.29 164.35 299.248 163.65 298.736C163.042 297.868 163.064 296.407 162.98 295.302C160.158 294.62 154.626 294.172 151.802 294.806C151.124 295.922 152.045 297.398 151.295 298.834C149.914 299.824 144.823 300.211 144.849 298.719C144.924 294.425 144.115 285.271 144.917 281.428ZM151.314 290.15C153.987 290.106 160.74 290.392 162.805 289.866C164.253 286.304 162.121 285.886 159.054 285.856C156.476 285.831 153.923 286.109 151.337 285.97C151.534 287.734 151.473 288.402 151.314 290.15Z" fill="#FEFEFE"/>
<path d="M85.8967 281.111C94.6207 281.776 113.928 277.673 106.749 293.031C106.064 294.495 103.151 294.717 101.747 294.901C99.4136 294.987 91.6012 294.542 90.4606 295.594C90.4684 296.799 90.7286 297.648 89.9992 298.647C88.1302 299.955 86.0195 299.457 83.6791 299.304C83.6763 295.068 83.234 285.58 83.7946 281.826C84.6565 281.116 84.6298 281.314 85.8967 281.111ZM90.3426 290.345C93.3028 290.273 98.6958 290.359 101.328 290.07C101.409 289.001 101.629 287.498 101.303 286.541C99.7518 285.672 92.6669 286.001 90.342 285.967C90.447 287.721 90.4606 288.578 90.3426 290.345Z" fill="#FEFEFE"/>
<path d="M181.429 281.133C185.154 281.224 194.296 280.662 197.027 281.97C202.102 284.4 198.919 290.467 191.684 285.048C189.701 284.984 182.967 284.639 181.611 285.619C181.122 286.537 181.168 286.192 181.179 287.097C184.523 290.392 199.803 284.367 200.389 293.275C200.717 298.263 197.31 299.229 193.127 299.429C188.171 299.496 183.088 299.732 178.181 299.075C175.411 298.705 173.113 295.496 174.931 293.284C178.87 291.853 180.079 294.645 182.714 295.02C185.543 295.396 188.405 295.449 191.246 295.176C192.51 295.062 193.128 295.071 193.897 294.155C192.684 289.028 174.748 295.905 174.315 287.901C174.018 282.41 176.67 281.494 181.429 281.133Z" fill="#FEFEFE"/>
<path d="M266.348 281.249C269.431 281.302 287.634 280.824 288.928 281.89C289.298 282.858 289.457 285.218 288.535 285.588C285.836 286.674 274.508 284.784 272.732 286.398L272.771 287.272C274.834 290.036 283.918 287.097 287.102 288.622C288.541 289.309 288.533 290.648 287.52 291.703C286.248 292.137 283.392 292.067 281.911 292.093C280.105 292.137 274.088 291.848 273.125 292.593C272.685 293.348 272.677 293.453 272.746 294.327C274.578 296.29 287.244 293.106 289.326 296.841C289.287 297.848 288.855 298.833 287.762 298.844C284.917 298.869 268.224 299.863 266.762 298.925C266.039 297.161 266.209 283.843 266.348 281.249Z" fill="#FEFEFE"/>
<path d="M213.259 281.124C215.824 281.058 218.39 281.021 220.956 281.019C224.008 281.03 231.214 280.927 231.356 286.217C231.43 288.942 227.091 288.057 225.269 287.784C224.63 287.147 223.908 286.565 223.215 285.984C219.802 285.511 214.999 285.694 211.603 286.176C211.433 292.705 209.79 295.355 218.241 295.018C220.039 294.945 222.013 295.313 223.652 294.364C226.59 290.712 235.15 290.431 229.471 298.282C229.222 298.374 227.4 299.034 227.007 299.076C221.725 299.627 211.545 300.489 206.94 297.943C205.886 297.361 204.852 295.441 204.853 294.461C204.857 290.086 203.8 286.423 206.406 282.791C209.262 281.561 210.259 281.417 213.259 281.124Z" fill="#FEFEFE"/>
<path d="M255.054 287.915C255.446 281.65 253.971 281.269 261.358 281.202C261.714 285.238 261.65 294.091 261.341 298.444C261.305 298.975 260.757 299.151 260.314 299.387C257.453 299.19 254.386 300.222 254.698 295.708C254.776 294.561 254.823 293.234 254.892 292.065C250.74 292.299 246.506 291.973 242.312 292.321C242.368 294.222 242.641 297.152 241.879 298.831C240.517 299.849 237.088 299.894 235.841 298.575C235.489 296.777 235.486 283.239 235.885 281.436C237.811 281.261 240.085 281.294 242.049 281.277C242.369 283.774 242.354 285.491 242.2 287.976C246.361 287.996 250.94 288.143 255.054 287.915Z" fill="#FEFEFE"/>
<path d="M402.329 282.162C403.454 282.115 405.213 282.079 405.906 283.134C409.24 288.205 412.833 293.398 416.006 298.558L415.831 298.945C413.509 299.574 412.594 297.08 411.556 295.36C409.936 295.193 407.072 295.207 405.355 295.165L396.201 295.224C395.221 296.727 393.916 299.12 391.909 299.24C390.957 297.979 400.726 283.515 402.329 282.162ZM397.214 293.392C399.582 293.44 402.048 293.529 404.403 293.387C406.429 293.462 408.051 293.518 410.078 293.415C409.092 291.881 404.636 284.433 403.59 283.894C402.109 286.273 398.95 291.327 397.214 293.392Z" fill="#FEFEFE"/>
<path d="M348.235 282.09C348.817 282.059 349.919 282.115 350.319 282.391C352.382 283.821 360.676 296.869 361.308 298.449C361.007 299.031 361.232 298.8 360.514 299.056C359.014 298.577 357.881 296.523 357.021 295.201C354.862 295.168 352.668 295.182 350.506 295.176C347.628 295.168 344.477 295.335 341.555 295.374C340.564 297.038 339.587 299.265 337.366 298.967L337.166 298.497C338.107 296.142 346.317 283.615 348.235 282.09ZM342.755 293.562L350.378 293.445C352.371 293.473 353.954 293.476 355.944 293.351C354.903 291.839 350.367 284.592 349.081 284.194C347.358 286.732 344.455 291.391 342.755 293.562Z" fill="#FEFEFE"/>
<path d="M368.522 282.221C372.079 281.82 377.019 282.065 380.66 281.979C382.858 282.029 385.65 282.154 387.248 283.88C388.222 284.929 388.411 286.952 387.289 287.913C384.815 287.434 386.747 283.134 380.749 283.696C377.84 283.966 371.005 282.984 368.341 284.573C367.053 285.341 366.649 295.394 368.308 296.532C369.613 297.272 372.516 297.25 374.089 297.253C376.549 296.988 383.649 297.988 385.297 296.245L386.14 292.413C384.231 292.285 376.786 292.644 375.889 291.62L376.106 291.108C377.921 289.944 385.564 290.351 388.18 290.367C389.922 301.809 383.32 298.375 374.715 299.148C372.764 299.326 368.141 298.909 366.671 298.027C363.61 296.187 364.439 287.111 365.527 284.08C365.934 283.025 367.607 282.46 368.522 282.221Z" fill="#FEFEFE"/>
<path d="M304.04 281.831C310.038 282.352 312.946 293.03 317.555 295.727C317.695 295.808 318.251 296.131 318.418 296.109C320.979 295.758 326.965 282.864 331.06 281.981C331.908 281.8 332.362 281.973 333.064 282.399C333.642 283.431 333.929 297.957 332.231 299.173L331.942 298.972C331.01 296.777 330.932 289.538 330.968 287.066C331.099 286.295 331.249 285.906 330.943 285.196C328.758 284.918 322.036 298.09 318.207 298.613C315.936 298.215 313.225 293.743 311.772 291.825C309.768 289.192 307.67 286.632 305.476 284.152C305.287 287.113 305.847 296.423 304.569 298.691L304.238 298.538C304.063 298.137 303.923 297.723 303.823 297.297C303.258 294.895 302.791 283.846 304.04 281.831Z" fill="#FEFEFE"/>
<path d="M51.7359 281.804C56.255 282.358 68.7719 281.779 71.8262 283.095C67.6213 284.54 58.5417 283.966 53.4876 284.114C53.7559 286.237 53.8625 287.078 53.7534 289.237C57.066 289.168 66.8245 288.636 69.6386 289.864L69.5798 290.315C68.5584 291.01 62.0683 290.969 60.5077 290.971C58.0705 290.957 56.0794 291.016 53.6466 291.166C53.8105 293.29 53.9396 294.868 53.5711 296.975C56.2447 297.222 69.2241 296.76 70.3639 297.718L70.2859 298.219C68.9965 299.496 53.9622 299.09 51.2485 299.12C51.106 296.435 50.5817 283.543 51.7359 281.804Z" fill="#FEFEFE"/>
<path d="M475.007 281.664L475.742 281.965C476.666 283.47 476.978 297.483 474.949 298.73C471.278 298.931 465.826 293.011 462.97 290.604C460.395 288.438 457.743 285.984 455.171 283.771C455.219 288.118 455.146 292.735 454.907 297.077C454.823 298.619 454.712 298.691 453.685 299.557C453.424 299.295 452.917 298.764 452.878 298.416C452.285 293.128 452.783 287.297 452.416 281.931C453.348 281.981 455.533 282.059 456.296 282.53C462.591 286.415 467.874 292.596 474.094 296.963C474.119 293.467 473.393 284.161 475.007 281.664Z" fill="#FEFEFE"/>
<path d="M420.284 282.254C424.228 282.129 434.941 281.736 439.238 282.349C439.513 282.388 439.513 282.833 439.586 283.2C439.079 284.614 424.493 295.212 422.085 297.058C426.076 297.389 437.045 296.768 440.059 297.567L440.226 297.979C439.352 298.728 439.33 298.533 438.041 298.792C435.723 298.953 419.55 299.537 418.389 298.547L418.339 297.865C419.614 295.964 433.68 285.663 436.149 283.893C433.822 284.038 420.226 284.367 419.188 283.125L419.396 282.502L420.284 282.254Z" fill="#FEFEFE"/>
<path d="M44.528 289.377C44.56 287.092 44.1662 283.371 45.6449 281.893C46.4748 281.859 46.103 281.756 46.8005 282.199C47.4181 284.659 47.5464 297.267 46.6404 299.268C45.5667 299.087 45.8814 299.273 45.1595 298.675C44.3165 296.93 44.543 293.031 44.5544 291.016C39.3295 291.294 32.733 291.041 27.3027 291.091C27.337 293.05 27.5465 297.545 26.3325 299.023C24.2465 297.907 24.5696 284.005 25.5273 281.637C25.9506 281.695 26.2924 281.848 26.6921 281.999C27.6453 283.332 27.2671 287.473 27.2031 289.285C30.8588 288.976 40.8987 289.176 44.528 289.377Z" fill="#FEFEFE"/>
<path d="M481.562 282.266C485.633 281.862 498.959 282.143 502.614 283.137C497.042 284.626 490.156 283.682 484.153 284.094C484.25 285.733 484.208 287.545 484.208 289.198L488.414 289.479L489.179 290.743C487.562 290.735 485.803 290.907 484.181 291.03C484.317 293.206 484.236 294.921 484.147 297.103C486.936 297.25 499.925 296.521 500.874 298.249C499.341 299.471 484.807 298.959 481.737 298.978C481.428 293.646 482.037 287.991 481.562 282.266Z" fill="#FEFEFE" fill-opacity="0.988235"/>
<path d="M12.6778 281.979C14.7875 282.037 19.9428 281.976 21.5365 282.928L21.443 283.307C19.2192 284.267 14.8323 284.041 12.2667 284.027C12.3889 287.278 12.6717 295.241 11.6842 298.48C11.5462 298.934 11.0299 298.976 10.5887 299.098C10.4148 293.696 9.33631 289.833 10.0975 283.969C8.34382 284.033 1.29062 284.32 0.299805 283.217L0.455663 282.85C2.26196 281.882 10.0505 282.026 12.6778 281.979Z" fill="#FEFEFE" fill-opacity="0.988235"/>
<path d="M444.902 281.726C445.734 281.787 446.43 281.723 447.042 282.227C447.329 284.061 447.317 297.684 446.766 299.259C446.24 299.209 444.852 299.048 444.821 298.372C444.657 294.773 443.914 284.765 444.902 281.726Z" fill="#FEFEFE"/>
<path d="M488.414 289.479C490.618 288.789 497.24 289.151 499.536 289.694L499.856 290.028C498.72 290.927 490.282 291.347 489.179 290.743L488.414 289.479Z" fill="#FEFEFE"/>
</svg>
